<?xml version="1.0" encoding="utf-8"?>
<!-- Generator: Adobe Illustrator 22.0.0, SVG Export Plug-In . SVG Version: 6.00 Build 0)  -->
<svg version="1.1" id="图层_1" xmlns="http://www.w3.org/2000/svg" xmlns:xlink="http://www.w3.org/1999/xlink" x="0px" y="0px"
	 viewBox="0 0 566.929 566.929" style="enable-background:new 0 0 566.929 566.929;" xml:space="preserve">
<style type="text/css">
	.st0{fill:#195968;}
	.st1{fill:#2A707B;}
	.st2{fill:#8DCCCA;}
	.st3{fill:#BAE8E8;}
	.st4{fill:#D6B6CD;}
	.st5{fill:#583C50;}
	.st6{fill:#845676;}
	.st7{fill:#704F66;}
	.st8{fill:#79B0AF;}
	.st9{fill:#704561;}
	.st10{fill:#59394F;}
	.st11{fill:#714C62;}
	.st12{fill:#523247;}
	.st13{fill:#FFFFFF;}
	.st14{fill:#231815;}
	.st15{fill:#82647D;}
	.st16{fill:#88C7C7;}
	.st17{fill:#89C8C8;}
	.st18{fill:#9ECFCE;}
	.st19{fill:#141A29;}
	.st20{fill:#9F7F94;}
	.st21{fill:#76B0AF;}
	.st22{fill:#A9D9D6;}
	.st23{fill:#BAD5D1;}
	.st24{fill:#FDFFFF;}
	.st25{fill:#281623;}
	.st26{fill:#BDE1E3;}
	.st27{fill:#306A74;}
	.st28{fill:#39192F;}
	.st29{fill:#88657C;}
	.st30{fill:#825476;}
	.st31{fill:#040000;}
	.st32{fill:none;stroke:#D6B6CD;stroke-miterlimit:10;}
	.st33{fill:#52A9B2;}
	.st34{opacity:0.61;}
	.st35{opacity:0.53;}
	.st36{fill:#492E3F;}
	.st37{opacity:0.49;}
	.st38{opacity:0.5;}
	.st39{opacity:0.57;}
	.st40{opacity:0.68;}
	.st41{fill:#12444C;}
	.st42{opacity:0.35;fill:#89C8C8;}
	.st43{fill:#F1D696;}
	.st44{fill:#F1E3CC;}
	.st45{fill:#B89CB0;}
	.st46{fill:#735068;}
	.st47{fill:none;}
	.st48{fill:#6B4B61;}
	.st49{fill:#A5D8D9;}
</style>
<g>
	<g>
		<path class="st16" d="M161.027,406.169c8.401-5.552,18.443-8.156,28.484-6.939c4.904,0.594,9.579,2.165,14.117,4.07
			c4.448,1.867,9.003,4.826,13.841,5.387c0.278,0.032,0.236-1.742,0.01-1.919c-7.531-5.875-19.395-9.962-28.852-10.671
			c-9.934-0.745-19.628,2.14-27.798,7.742C160.39,404.139,160.801,406.319,161.027,406.169L161.027,406.169z"/>
	</g>
</g>
<g>
	<g>
		<path class="st16" d="M199.425,414.174c7.479,6.118,17.047,7.123,26.23,4.664c4.874-1.305,9.437-3.54,13.745-6.132
			c4.445-2.674,9.636-5.567,12.712-9.767c0.148-0.202,0.233-2.001-0.106-1.955c-4.125,0.563-8.498,5.058-11.98,7.188
			c-4.302,2.631-8.896,4.933-13.739,6.384c-8.834,2.647-18.881,2.205-26.774-2.872C199.286,411.538,198.981,413.811,199.425,414.174
			L199.425,414.174z"/>
	</g>
</g>
<g>
	<g>
		<path class="st16" d="M242.729,400.068c6.057-3.608,14.069-4.38,20.762-2.183c6.289,2.064,11.738,10.208,18.465,10.349
			c0.306,0.006,0.263-1.832,0.01-1.996c-5.891-3.816-11.763-9.453-18.554-11.549c-7.461-2.303-14.518-0.561-20.767,3.845
			C242.351,398.743,242.705,400.083,242.729,400.068L242.729,400.068z"/>
	</g>
</g>
<g>
	<g>
		<path class="st16" d="M268.74,412.002c10.866,7.739,29.813,8.233,39.735-1.522c0.229-0.225,0.118-2.106-0.11-2.031
			c-6.697,2.178-12.39,5.141-19.631,5.425c-7.061,0.277-13.489-1.614-19.983-4.175C268.6,409.639,268.375,411.742,268.74,412.002
			L268.74,412.002z"/>
	</g>
</g>
<g>
	<g>
		<path class="st16" d="M290.878,398.313c5.347-3.6,11.808-4.272,18.043-2.985c6.347,1.309,11.111,5.533,17.094,7.459
			c0.231,0.074,0.225-1.812,0.01-2.034c-8.844-9.143-24.859-12.555-35.319-4.469C290.341,396.564,290.682,398.445,290.878,398.313
			L290.878,398.313z"/>
	</g>
</g>
<g>
	<g>
		<path class="st16" d="M324.925,409.381c11.112,7.912,25.249,2.807,35.076-4.863c0.234-0.183,0.079-1.78-0.093-1.725
			c-11.555,3.686-22.828,11.393-34.973,4.592C324.902,407.366,324.549,409.113,324.925,409.381L324.925,409.381z"/>
	</g>
</g>
<g>
	<g>
		<path class="st16" d="M359.869,398.677c1.783-1.487,5.529-0.212,7.624,0.085c2.907,0.413,5.797,0.966,8.555,2.002
			c4.755,1.785,7.71,4.842,10.262,9.073c0.076,0.126,0.206-1.317,0.157-1.539c-1.093-5-4.404-8.441-9.042-10.543
			c-3.889-1.763-14.725-5.035-17.697-0.733C359.543,397.291,359.708,398.811,359.869,398.677L359.869,398.677z"/>
	</g>
</g>
<g>
	<g>
		<path class="st16" d="M370.128,410.384c11.194,5.145,26.319,4.551,35.173-4.895c0.202-0.215,0.072-1.871-0.098-1.801
			c-5.635,2.324-10.829,5.115-16.974,5.997c-6.091,0.875-12.296,0.305-18.156-1.527C369.921,408.11,369.665,410.171,370.128,410.384
			L370.128,410.384z"/>
	</g>
</g>
<g>
	<path class="st22" d="M222.52,185.918c4.585-11.421,19.463-19.462,31.37-19.623c10.514-0.142,18.69,8.98,15.016,19.495
		c-0.395,1.132-0.95,2.25-1.867,3.022c-1.311,1.103-3.152,1.328-4.863,1.232c-10.661-0.599-24.983-16.365-35.351-6.645
		c-3.463,3.247-3.676,8.101-5.222,12.233C220.047,192.927,221.398,188.713,222.52,185.918z"/>
	<path class="st22" d="M229.147,146.337c0.493-0.64,1.014-1.261,1.564-1.864c3.694-4.043,8.905-5.325,14.025-3.496
		c3.444,1.231,6.316,3.74,8.546,6.639c1.492,1.939,2.591,5.053,0.653,6.548c-2.496,1.925-7.222,0.15-9.995,0.009
		c-10.112-0.515-14.612,4.903-18.039,13.77c-3.279,8.486-6.607,17.292-8.526,26.201C220.607,179.147,219.25,159.178,229.147,146.337
		z"/>
	<path class="st22" d="M209.823,154.733c-1.539-7.097-3.27-27.135,10.178-23.301c0.87,0.248,1.738,0.674,2.247,1.422
		c2.065,3.032-2.473,7.5-3.946,9.822c-2.614,4.119-2.747,9.284-2.8,14.162c-0.113,10.559,0.21,21.264-0.424,31.783
		c0.216-3.585-1.279-8.18-1.49-11.933C213.165,169.162,211.412,162.057,209.823,154.733z"/>
	<path class="st22" d="M199.555,162.374c-3.891-5.33-6.646-5.93-13.568-4.024c-2.72,0.749-5.795,0.702-8.182-0.802
		c-2.388-1.503-3.796-4.701-2.691-7.297c0.483-1.135,1.366-2.046,2.261-2.902c4.191-4.006,10.267-4.339,15.355-1.832
		c13.06,6.435,18.373,24.69,18.794,38.071c0.064,2.027,0.273,4.201,0.437,6.095c-2.891-3.243-3.274-7.936-4.75-11.87
		c-1.755-4.678-3.82-9.804-6.73-14.118C200.162,163.225,199.855,162.786,199.555,162.374z"/>
	<path class="st22" d="M196.749,181.934c-3.836-1.938-8.877-3.401-13.254-1.862c-5.347,1.88-7.737,7.96-13.297,9.782
		c-4.198,1.375-10.21-0.965-10.855-5.804c-1.079-8.109,9.367-13.14,15.832-14.383c7.835-1.507,16.651,0.308,22.758,5.593
		c4.135,3.579,7.521,8.517,9.151,13.742C203.723,186.523,200.62,183.89,196.749,181.934z"/>
</g>
<path class="st2" d="M141.064,339.982c-11.617-18.151,0.229-55.877,8.753-72.697c11.315-22.327,30.524-40.552,53.414-50.678
	c16.494-7.297,35.14-10.425,52.812-6.816c20.345,4.155,37.512,16.7,52.318,30.708c12.723,12.038,24.083,32.699,43.059,34.472
	c41.705,3.895,70.364-63.992,47.871-94.564c-6.554-8.908,8.919-12.598,15.253-8.683c5.939,3.67,9.417,10.221,12.087,16.672
	c19.029,45.968,8.448,101.793-25.984,137.687c-37.237,38.818-96.861,46.922-148.059,44.605c-16.023-0.725-32-2.551-47.792-5.353
	c-20.376-3.616-50.537-6.079-63.337-24.755C141.325,340.382,141.193,340.183,141.064,339.982z"/>
<path class="st22" d="M351.834,321.004c-21.197-2.201-42.659-1.803-63.859,0.14c-22.174,2.033-44.794,5.393-65.749,13.12
	c-15.09,5.564-29.426,13.431-41.996,23.487c-1.066,0.853-2.111,1.729-3.146,2.614c9.641,2.232,19.477,3.506,27.714,4.967
	c15.792,2.803,31.769,4.628,47.792,5.353c49.001,2.218,105.719-5.114,143.142-39.781C381.78,325.344,366.618,322.54,351.834,321.004
	z"/>
<g>
	<g>
		<path class="st13" d="M218.705,269.531c-0.604-0.604-1.208-1.208-1.812-1.812c-1.54-1.658-3.363-2.829-5.471-3.515
			c-2.026-1.064-4.209-1.552-6.55-1.464c-2.341-0.088-4.524,0.4-6.55,1.464c-2.108,0.686-3.931,1.857-5.471,3.515
			c-0.886,1.147-1.772,2.294-2.658,3.441c-1.538,2.651-2.311,5.512-2.321,8.58c0.202,1.506,0.405,3.013,0.607,4.519
			c0.808,2.88,2.265,5.38,4.372,7.502c0.604,0.604,1.208,1.208,1.812,1.812c1.54,1.658,3.363,2.829,5.471,3.515
			c2.026,1.064,4.209,1.552,6.55,1.464c2.341,0.088,4.524-0.4,6.55-1.464c2.108-0.686,3.931-1.857,5.471-3.515
			c0.886-1.147,1.772-2.294,2.658-3.441c1.538-2.652,2.311-5.512,2.321-8.58c-0.202-1.506-0.405-3.013-0.607-4.519
			C222.269,274.152,220.812,271.652,218.705,269.531L218.705,269.531z"/>
	</g>
</g>
<g>
	<g>
		<path class="st14" d="M221.46,278.396c0-0.302,0-0.604,0-0.906c0.06-1.583-0.27-3.06-0.99-4.431
			c-0.464-1.426-1.256-2.659-2.378-3.701c-1.042-1.121-2.275-1.914-3.701-2.378c-1.37-0.72-2.847-1.05-4.431-0.99
			c-1.019,0.137-2.038,0.274-3.057,0.411c-1.948,0.546-3.64,1.532-5.075,2.957c-0.599,0.776-1.199,1.552-1.798,2.327
			c-1.04,1.794-1.564,3.728-1.57,5.804c0,0.302,0,0.604,0,0.906c-0.06,1.583,0.27,3.06,0.99,4.431
			c0.464,1.426,1.256,2.659,2.378,3.701c1.042,1.121,2.275,1.914,3.701,2.378c1.37,0.72,2.847,1.05,4.431,0.99
			c1.019-0.137,2.038-0.274,3.057-0.411c1.948-0.546,3.64-1.532,5.075-2.957c0.599-0.776,1.199-1.552,1.798-2.327
			C220.931,282.406,221.454,280.472,221.46,278.396L221.46,278.396z"/>
	</g>
</g>
<g>
	<g>
		<path class="st14" d="M137.458,335.225c12.208,1.294,24.155-6.26,29.457-16.983c0.185-0.373,0.078-2.822-0.218-2.567
			c-4.221,3.639-8.451,7.295-13.427,9.886c-4.994,2.601-10.428,3.62-15.94,4.457C136.475,330.148,136.592,335.133,137.458,335.225
			L137.458,335.225z"/>
	</g>
</g>
<g>
	<g>
		<path class="st26" d="M252.55,241.106c0,0.604,0,1.208,0,1.812c0,1.923,0.837,3.943,2.197,5.303
			c0.679,0.731,1.484,1.248,2.414,1.551c0.894,0.47,1.857,0.685,2.89,0.646c1.94-0.087,3.951-0.724,5.303-2.197
			c1.347-1.467,2.197-3.271,2.197-5.303c0-0.604,0-1.208,0-1.812c0-1.923-0.837-3.943-2.197-5.303
			c-0.679-0.731-1.484-1.248-2.414-1.551c-0.894-0.47-1.857-0.685-2.89-0.646c-1.94,0.087-3.951,0.724-5.303,2.197
			C253.4,237.27,252.55,239.074,252.55,241.106L252.55,241.106z"/>
	</g>
</g>
<g>
	<g>
		<path class="st26" d="M296.285,266.723c9.652,0,9.668-15,0-15C286.633,251.723,286.617,266.723,296.285,266.723L296.285,266.723z"
			/>
	</g>
</g>
<g>
	<g>
		<path class="st26" d="M260.05,264.029c-0.604,0-1.208,0-1.812,0c-1.583-0.06-3.06,0.27-4.431,0.99
			c-1.426,0.464-2.659,1.256-3.701,2.378c-1.121,1.042-1.914,2.275-2.378,3.701c-0.72,1.37-1.05,2.847-0.99,4.431
			c0.137,1.019,0.274,2.038,0.411,3.057c0.546,1.948,1.532,3.64,2.957,5.075c0.776,0.599,1.552,1.199,2.327,1.798
			c1.794,1.04,3.728,1.564,5.804,1.57c0.604,0,1.208,0,1.812,0c1.583,0.06,3.06-0.27,4.431-0.99
			c1.426-0.464,2.659-1.256,3.701-2.378c1.121-1.042,1.914-2.275,2.378-3.701c0.72-1.37,1.05-2.847,0.99-4.431
			c-0.137-1.019-0.274-2.038-0.411-3.057c-0.546-1.948-1.532-3.64-2.957-5.075c-0.776-0.599-1.552-1.199-2.327-1.798
			C264.06,264.559,262.126,264.035,260.05,264.029L260.05,264.029z"/>
	</g>
</g>
<path class="st0" d="M369.103,184.97c-11.334-2.566-22.427-7.241-30.978-15.109c-4.964-4.567-9.215-11.272-7.286-17.736
	c0.838-2.807,2.779-5.195,5.103-6.978c6.27-4.81,14.876-5.298,22.695-4.131c18.326,2.736,35.081,14.02,44.975,29.619
	c1.419,2.236,6.595,9.263,5.885,11.949c-1.134,4.288-2.664,1.833-6.922,2.861C391.634,188.087,380.006,187.439,369.103,184.97z"/>
<path class="st27" d="M409.28,183.312c0.075-0.218,0.147-0.459,0.218-0.727c0.71-2.686-4.467-9.713-5.885-11.949
	c-9.895-15.599-26.65-26.883-44.975-29.619c-7.819-1.167-16.425-0.679-22.695,4.131c-0.47,0.361-0.919,0.752-1.352,1.161
	C362.144,148.66,387.526,166.575,409.28,183.312z"/>
<path class="st0" d="M397.169,166.71c-0.72-4.492-1.435-9.05-0.943-13.572c1.124-10.341,8.408-19.048,16.705-25.322
	c6.295-4.76,14.873-8.573,21.846-4.879c3.193,1.692,5.491,4.758,6.898,8.086c3.914,9.263,1.261,20.255-4.311,28.627
	c-5.906,8.875-16.381,18.883-25.819,23.964C399.43,190.137,398.818,176.964,397.169,166.71z"/>
<path class="st27" d="M427.492,134.281c2.632-3.632,5.463-7.19,8.476-10.621c-0.382-0.262-0.778-0.505-1.191-0.723
	c-6.973-3.695-15.552,0.119-21.846,4.879c-8.297,6.274-15.581,14.981-16.705,25.322c-0.492,4.523,0.223,9.08,0.943,13.572
	c1.417,8.816,2.076,19.777,9.929,18.537C408.644,166.89,416.713,149.156,427.492,134.281z"/>
<g>
	<g>
		<path class="st13" d="M159.626,272.646c0.719-3.707,2.152-6.944,4.393-9.983c2.294-3.11-2.911-6.106-5.181-3.028
			c-2.499,3.388-4.197,7.284-4.998,11.416C153.108,274.823,158.89,276.439,159.626,272.646L159.626,272.646z"/>
	</g>
</g>
<g>
	<g>
		<path class="st13" d="M171.827,254.532c0-0.222,0-0.444,0-0.667c0-1.569-1.38-3.073-3-3c-1.625,0.073-3,1.318-3,3
			c0,0.222,0,0.444,0,0.667c0,1.569,1.38,3.073,3,3C170.452,257.459,171.827,256.214,171.827,254.532L171.827,254.532z"/>
	</g>
</g>
</svg>
